<svg xmlns="http://www.w3.org/2000/svg" xmlns:xlink="http://www.w3.org/1999/xlink" width="500" zoomAndPan="magnify" viewBox="0 0 375 374.999991" height="500" preserveAspectRatio="xMidYMid meet" version="1.0"><defs><g/><clipPath id="99874c4951"><path d="M 101.984375 330.074219 L 274.980469 330.074219 L 274.980469 365.828125 L 101.984375 365.828125 Z M 101.984375 330.074219 " clip-rule="nonzero"/></clipPath></defs><g fill="#f7931a" fill-opacity="1"><g transform="translate(9.737498, 315.469899)"><g><path d="M 91.5625 -306.75 L 91.5625 -299.765625 C 81.445312 -299.765625 76.390625 -296.847656 76.390625 -291.015625 C 76.390625 -289.066406 76.78125 -287.21875 77.5625 -285.46875 C 78.34375 -283.71875 79.703125 -281.09375 81.640625 -277.59375 L 181.375 -55.984375 L 277.015625 -279.9375 C 279.347656 -284.988281 280.515625 -288.484375 280.515625 -290.421875 C 280.515625 -292.753906 279.539062 -294.894531 277.59375 -296.84375 C 275.65625 -298.789062 271.570312 -299.765625 265.34375 -299.765625 L 265.34375 -306.75 L 348.15625 -306.75 L 348.15625 -299.765625 C 343.5 -299.765625 339.320312 -298.5 335.625 -295.96875 C 331.925781 -293.4375 328.328125 -288.09375 324.828125 -279.9375 L 218.703125 -34.984375 C 215.972656 -28.765625 213.925781 -24.097656 212.5625 -20.984375 C 211.207031 -17.878906 210.53125 -15.550781 210.53125 -14 C 210.53125 -9.332031 215 -7 223.9375 -7 L 223.9375 0 L 134.71875 0 L 134.71875 -7 C 144.050781 -7 148.71875 -9.523438 148.71875 -14.578125 C 148.71875 -16.523438 148.519531 -18.273438 148.125 -19.828125 C 147.738281 -21.378906 146.769531 -23.710938 145.21875 -26.828125 L 31.484375 -278.765625 C 27.597656 -287.316406 24.097656 -292.953125 20.984375 -295.671875 C 17.878906 -298.398438 13.410156 -299.765625 7.578125 -299.765625 L 7.578125 -306.75 Z M 91.5625 -306.75 "/></g></g></g><g clip-path="url(#99874c4951)"><path fill="#f7931a" d="M 101.984375 330.074219 L 275.019531 330.074219 L 275.019531 365.828125 L 101.984375 365.828125 Z M 101.984375 330.074219 " fill-opacity="1" fill-rule="nonzero"/></g></svg>